# xmcd
#
# Track frame offsets:
#	150
#	17707
#	32017
#	54195
#	75107
#	92710
#	112085
#	134310
#	150250
#	170959
#
# Disc length: 2557 seconds
#
# Revision: 1
# Processed by: cddbd v1.5.1PL2 Copyright (c) Steve Scherf et al.
# Submitted via: audiograbber 1.83.01
#
DISCID=6e09fb0a
DTITLE=Roland Stone - Live on the Creole Queen
DYEAR=1997
DGENRE=Blues
TTITLE0=Sick and Tired
TTITLE1=Every Dog has its Day
TTITLE2=Kiss Tomorrow Goodbye
TTITLE3=Just a Moment
TTITLE4=You Cheated
TTITLE5=Waiting at the Station
TTITLE6=Is It a Dream
TTITLE7=Ya Ya
TTITLE8=Honky Tonk Woman
TTITLE9=Go on Fool
EXTD=
EXTT0=
EXTT1=
EXTT2=
EXTT3=
EXTT4=
EXTT5=
EXTT6=
EXTT7=
EXTT8=
EXTT9=
PLAYORDER=
